<?xml version="1.0" encoding="UTF-8"?>
<!DOCTYPE svg PUBLIC "-//W3C//DTD SVG 1.1//EN" "http://www.w3.org/Graphics/SVG/1.1/DTD/svg11.dtd">
<svg xmlns="http://www.w3.org/2000/svg" version="1.1" width="500px" height="500px" style="shape-rendering:geometricPrecision; text-rendering:geometricPrecision; image-rendering:optimizeQuality; fill-rule:evenodd; clip-rule:evenodd" xmlns:xlink="http://www.w3.org/1999/xlink">
<g><path style="opacity:1" fill="#212832" d="M 236.5,70.5 C 273.541,67.8566 308.208,75.5233 340.5,93.5C 396.589,125.942 428.422,174.608 436,239.5C 436.775,252.2 436.608,264.866 435.5,277.5C 434.264,279.611 432.764,281.611 431,283.5C 430.5,290.158 430.334,296.825 430.5,303.5C 416.593,355.028 386.593,394.028 340.5,420.5C 327.764,426.709 314.764,432.042 301.5,436.5C 277.646,443.168 253.313,445.335 228.5,443C 217.346,441.536 206.346,439.369 195.5,436.5C 186.904,433.127 178.238,429.627 169.5,426C 161.779,421.809 154.113,417.642 146.5,413.5C 78.6258,364.103 52.1258,297.77 67,214.5C 78.9033,166.132 105.403,128.132 146.5,100.5C 173.748,82.5147 203.748,72.5147 236.5,70.5 Z"/></g>
<g><path style="opacity:0.052" fill="#edeef0" d="M 236.5,69.5 C 236.5,69.8333 236.5,70.1667 236.5,70.5C 203.748,72.5147 173.748,82.5147 146.5,100.5C 146.414,99.5041 146.748,98.6708 147.5,98C 174.624,80.5699 204.291,71.0699 236.5,69.5 Z"/></g>
<g><path style="opacity:0.067" fill="#dee0e2" d="M 236.5,70.5 C 236.5,70.1667 236.5,69.8333 236.5,69.5C 273.012,66.3793 307.346,73.5459 339.5,91C 340.252,91.6708 340.586,92.5041 340.5,93.5C 308.208,75.5233 273.541,67.8566 236.5,70.5 Z"/></g>
<g><path style="opacity:1" fill="#fafafb" d="M 185.5,212.5 C 202.041,211.624 216.374,216.791 228.5,228C 233.377,233.213 238.544,238.046 244,242.5C 250.822,236.346 257.655,230.18 264.5,224C 282.639,210.324 301.639,208.991 321.5,220C 339.54,237.53 342.373,257.363 330,279.5C 312.969,298.7 293.136,302.2 270.5,290C 260.775,283.281 251.942,275.448 244,266.5C 233.859,277.989 222.025,287.156 208.5,294C 187.807,301.32 170.64,296.487 157,279.5C 142.976,246.901 152.476,224.568 185.5,212.5 Z"/></g>
<g><path style="opacity:1" fill="#222832" d="M 185.5,230.5 C 193.503,229.708 201.169,230.875 208.5,234C 217.388,239.882 225.388,246.882 232.5,255C 224.266,265.101 214.266,272.767 202.5,278C 186.036,283.018 174.869,277.518 169,261.5C 166.68,246.797 172.18,236.464 185.5,230.5 Z"/></g>
<g><path style="opacity:1" fill="#222832" d="M 287.5,230.5 C 313.268,229.435 323.102,241.435 317,266.5C 307.283,280.121 294.783,283.288 279.5,276C 270.612,270.118 262.612,263.118 255.5,255C 264.338,244.121 275.005,235.954 287.5,230.5 Z"/></g>
<g><path style="opacity:0.989" fill="#3e424a" d="M 435.5,277.5 C 434.678,286.453 433.011,295.12 430.5,303.5C 430.334,296.825 430.5,290.158 431,283.5C 432.764,281.611 434.264,279.611 435.5,277.5 Z"/></g>
<g><path style="opacity:0.037" fill="#eeeff1" d="M 146.5,413.5 C 154.113,417.642 161.779,421.809 169.5,426C 178.238,429.627 186.904,433.127 195.5,436.5C 177.426,432.294 161.093,424.627 146.5,413.5 Z"/></g>
<g><path style="opacity:0.024" fill="#ebecee" d="M 340.5,420.5 C 336.461,424.035 331.794,426.869 326.5,429C 318.544,432.819 310.211,435.319 301.5,436.5C 314.764,432.042 327.764,426.709 340.5,420.5 Z"/></g>
</svg>
